<svg width="36" height="36" viewBox="0 0 36 36" fill="none" xmlns="http://www.w3.org/2000/svg">
<mask id="mask0_1075_2740" style="mask-type:alpha" maskUnits="userSpaceOnUse" x="0" y="0" width="36" height="36">
<rect width="36" height="36" fill="#D9D9D9"/>
</mask>
<g mask="url(#mask0_1075_2740)">
<path d="M3 15.0003C3 12.5003 3.55625 10.2065 4.66875 8.11904C5.78125 6.03154 7.275 4.30029 9.15 2.92529L10.9125 5.32529C9.4125 6.42529 8.21875 7.81279 7.33125 9.48779C6.44375 11.1628 6 13.0003 6 15.0003H3ZM30 15.0003C30 13.0003 29.5563 11.1628 28.6688 9.48779C27.7813 7.81279 26.5875 6.42529 25.0875 5.32529L26.85 2.92529C28.725 4.30029 30.2188 6.03154 31.3313 8.11904C32.4438 10.2065 33 12.5003 33 15.0003H30ZM6 28.5003V25.5003H9V15.0003C9 12.9253 9.625 11.0815 10.875 9.46904C12.125 7.85654 13.75 6.80029 15.75 6.30029V5.25029C15.75 4.62529 15.9688 4.09404 16.4062 3.65654C16.8438 3.21904 17.375 3.00029 18 3.00029C18.625 3.00029 19.1562 3.21904 19.5938 3.65654C20.0312 4.09404 20.25 4.62529 20.25 5.25029V6.30029C22.25 6.80029 23.875 7.85654 25.125 9.46904C26.375 11.0815 27 12.9253 27 15.0003V25.5003H30V28.5003H6ZM18 33.0003C17.175 33.0003 16.4688 32.7065 15.8813 32.119C15.2938 31.5315 15 30.8253 15 30.0003H21C21 30.8253 20.7063 31.5315 20.1188 32.119C19.5312 32.7065 18.825 33.0003 18 33.0003ZM12 25.5003H24V15.0003C24 13.3503 23.4125 11.9378 22.2375 10.7628C21.0625 9.58779 19.65 9.00029 18 9.00029C16.35 9.00029 14.9375 9.58779 13.7625 10.7628C12.5875 11.9378 12 13.3503 12 15.0003V25.5003Z" fill="#1C1B1F"/>
</g>
</svg>
