<svg width="10" height="10" viewBox="0 0 10 10" fill="none" xmlns="http://www.w3.org/2000/svg">
<path d="M5.0026 9.16732C4.42622 9.16732 3.88455 9.05794 3.3776 8.83919C2.87066 8.62044 2.42969 8.32357 2.05469 7.94857C1.67969 7.57357 1.38281 7.1326 1.16406 6.62565C0.945312 6.11871 0.835938 5.57704 0.835938 5.00065C0.835938 4.42426 0.945312 3.8826 1.16406 3.37565C1.38281 2.86871 1.67969 2.42773 2.05469 2.05273C2.42969 1.67773 2.87066 1.38086 3.3776 1.16211C3.88455 0.943359 4.42622 0.833984 5.0026 0.833984C5.57899 0.833984 6.12066 0.943359 6.6276 1.16211C7.13455 1.38086 7.57552 1.67773 7.95052 2.05273C8.32552 2.42773 8.6224 2.86871 8.84115 3.37565C9.0599 3.8826 9.16927 4.42426 9.16927 5.00065C9.16927 5.18815 9.15885 5.37218 9.13802 5.55273C9.11719 5.73329 9.08247 5.91037 9.03385 6.08398C8.93663 5.97287 8.82378 5.87912 8.69531 5.80273C8.56684 5.72635 8.42622 5.67426 8.27344 5.64648C8.29427 5.54232 8.3099 5.43642 8.32031 5.32878C8.33073 5.22114 8.33594 5.11176 8.33594 5.00065C8.33594 4.0701 8.01302 3.2819 7.36719 2.63607C6.72135 1.99023 5.93316 1.66732 5.0026 1.66732C4.07205 1.66732 3.28385 1.99023 2.63802 2.63607C1.99219 3.2819 1.66927 4.0701 1.66927 5.00065C1.66927 5.93121 1.99219 6.7194 2.63802 7.36523C3.28385 8.01107 4.07205 8.33398 5.0026 8.33398C5.35677 8.33398 5.69531 8.2819 6.01823 8.17773C6.34115 8.07357 6.63802 7.92773 6.90885 7.74023C6.99219 7.85829 7.09462 7.96246 7.21615 8.05273C7.33767 8.14301 7.46788 8.21246 7.60677 8.26107C7.2526 8.54579 6.85503 8.76801 6.41406 8.92773C5.97309 9.08746 5.5026 9.16732 5.0026 9.16732ZM8.02344 7.50065C7.8776 7.50065 7.75434 7.4503 7.65365 7.34961C7.55295 7.24891 7.5026 7.12565 7.5026 6.97982C7.5026 6.83398 7.55295 6.71072 7.65365 6.61003C7.75434 6.50933 7.8776 6.45898 8.02344 6.45898C8.16927 6.45898 8.29253 6.50933 8.39323 6.61003C8.49392 6.71072 8.54427 6.83398 8.54427 6.97982C8.54427 7.12565 8.49392 7.24891 8.39323 7.34961C8.29253 7.4503 8.16927 7.50065 8.02344 7.50065ZM6.3776 6.95898L4.58594 5.16732V2.91732H5.41927V4.83398L6.96094 6.37565L6.3776 6.95898Z" fill="#1C1B1F"/>
</svg>
